<?xml version="1.0" standalone="yes"?>
<svg xmlns="http://www.w3.org/2000/svg" width="223" height="196">
<path style="fill:#0d0d0d; stroke:none;" d="M58 11C41.8167 5.10184 22.515 13.2888 21.0941 32C20.4479 40.51 25.1132 47.0565 27 55C14.6579 60.5008 2.18435 76.2169 1.09336 90C0.648921 95.6149 3.63524 100.656 3.27238 106C2.59456 115.982 -2.81734 127.952 9.03549 134.312C10.9478 135.338 12.8939 135.671 15 136C12.8368 145.463 9.47974 156.502 16.3943 164.957C23.8809 174.111 40.5536 175.021 42 161C48.7337 164.461 47.9329 169.532 50.4637 176C53.2036 183.003 57.8454 189.559 65 192.518C71.631 195.26 79.0022 195.579 84.9066 191.058C88.1788 188.552 90.1204 184.511 94.0401 182.89C103.785 178.859 117.579 178.87 128 178.375C136.494 177.972 140.55 188.602 148.985 184.91C158.042 180.945 158 171.349 158 163C162.821 162.286 167.276 163.131 172 162.659C175.008 162.358 177.943 160.71 181 161.063C187.413 161.805 193.357 167.508 199.891 163.142C207.083 158.336 201.44 152.251 201.539 146C201.621 140.8 205.273 136.193 205.489 131C205.887 121.467 193.445 110.03 185 108C187.754 101.341 185.555 96.0915 179 93C184.483 89.2917 192.981 93.4342 197.258 87.7716C200.987 82.8338 197.448 74.7621 198.464 69C200.494 57.4847 205.478 45.9958 211.453 36.0008C214.792 30.4152 221.003 25.1867 218.258 18.0008C214.774 8.88261 202.298 6.88831 195.015 12.4298C186.128 19.1927 180.583 35.2815 179 46C174.248 41.4529 171.586 37.9285 165 36C170.773 22.041 153.675 16.7367 143 20.8148C132.18 24.9484 131.568 34.2949 129 44L127 44C119.716 29.1922 104.903 39.8356 95 44C91.2005 30.4738 78.5843 34.5238 69 38C74.6608 32.0681 81.4068 23.86 79.4668 15C76.9652 3.57516 63.749 0.185699 58 11M48 51C54.0355 50.1873 61.3475 49.377 67 47.0995C71.3433 45.3496 78.2465 40.5741 82.9954 41.3766C91.0632 42.7399 89.7255 52.254 89 58C99.0675 56.8757 102.43 44.237 113 43.4336C126.812 42.3839 120.525 59.6527 113.96 64.3465C111.747 65.9289 105.423 67.9749 106.056 62.9406C106.577 58.7968 110.3 55.4084 111 51C105.343 53.8923 96.7607 68.8381 107.044 71.5517C117.631 74.3456 126.906 63.1895 130.427 55C131.96 51.4359 134.438 43.8962 139.093 43.5463C142.599 43.2827 145.657 46.6035 145.215 50.0039C144.6 54.7262 141.001 59.4386 139.52 64C137.336 70.7259 138.243 76.3575 140 83C135.641 84.8387 128.04 86.5926 125.603 80.8665C124.607 78.5262 125.002 75.4833 125 73C118.419 79.2799 99.5526 91.5197 92.4568 78.8912C89.7492 74.0726 91.5947 68.1362 92 63C83.5025 65.4426 81.3313 76.9951 73 81.1605C71.4259 81.9475 69.7544 82.5555 68 82.7716C51.7024 84.7792 57.4974 62.921 62 55C58.9104 56.0074 54.7877 56.8146 52.6034 59.419C49.2683 63.3956 51.3897 71.1718 50.6998 76C50.1531 79.8265 47.8929 84.117 48.5208 88C49.5898 94.6101 52.7004 97.8545 51 105C53.4266 101.855 55.9999 96.7731 59.9745 95.4074C67.9981 92.6505 66.5657 105.291 65 109C68.8942 104.772 73.1355 97.864 78.9992 96.2377C83.4409 95.0058 89.1247 101.476 88.1721 105.83C87.1242 110.619 80.0224 115.487 77.5147 120C72.1507 129.654 70.121 140.201 68.7184 151C67.7642 158.346 67.2419 167.125 70.7238 173.976C71.3635 175.235 75.64 179.881 75.8125 175.793C76.032 170.59 70.5159 167.957 73.5764 162.109C77.7502 154.133 85.7941 159.402 87 166C104.547 165.638 121.298 159 139 159C133.375 156.705 129.851 154.36 129 148C121.341 154.985 109.466 159.269 106 146C100.977 149.308 96.1705 153.846 90 154.787C79.9492 156.319 72.2643 150.646 74.5177 140C76.3856 131.176 82.3265 122.329 90.0008 117.563C98.9591 112 109.508 116.992 104 128C100.053 135.888 92.8431 138.448 85 141C89.0428 147.233 94.1866 145.689 100 142.319C109.362 136.893 111.025 125.262 119.015 118.133C124.414 113.316 132.123 112.09 136 119C140.245 109.925 143.362 98.0761 151.093 91.2292C157.339 85.6981 165.459 89.388 167 97C161.245 99.6838 157.42 104.726 154.054 110C147.362 120.486 140.841 133.438 139.479 146C138.947 150.91 141.679 155.072 141 160C151.531 161.673 155.154 175 144 179C140.673 167.434 122.028 171.224 113 172.424C105.394 173.436 95.1379 173.476 88.1327 176.728C82.9643 179.126 82.4833 185.875 76 186.851C55.1263 189.994 52.953 159.831 55.4645 146C57.0316 137.37 60.848 129.127 64 121C58.8396 127.28 55.2163 135.14 53.1559 143C52.4038 145.869 53.0296 153.149 50.3966 154.878C46.2237 157.618 41.2063 151.427 40.3943 147.985C38.1121 138.312 43.4639 128.619 47 120C40.385 127.991 34.7804 138.612 33.3002 149C32.7843 152.62 35.8288 161.705 32.5918 163.957C30.3672 165.504 27.0717 164.274 25.044 162.991C19.2592 159.331 19.5201 152.083 20.1736 146C22.0589 128.454 35.0618 112.484 44 98C36.4469 101.161 29.7795 105.866 25.4792 113C23.4316 116.397 21.2617 120.412 25 123C21.3408 130.417 10.8817 130.94 8.43364 121.999C6.48633 114.887 10.7527 108.862 14 103C-1.89449 93.8067 16.2117 71.8349 25 64.6157C27.7436 62.362 32.3036 60.1231 33.8789 56.8156C36.7139 50.8629 28.8699 42.0472 28.189 36C26.7859 23.538 38.047 14.3528 50 16.2137C53.7672 16.8002 56.8088 19.0811 60 21C61.2943 18.0782 63.3155 13.648 66.3596 12.1366C70.9526 9.85614 73.0103 16.7591 72.4244 20C71.1923 26.8147 64.8913 32.9798 59 36.0802C56.5189 37.386 51.964 39.0749 49.7114 36.3958C47.0054 33.1776 52.6255 28.7986 49.3935 25.5463C46.2081 22.3409 43.3721 28.6642 42.8827 31.0008C41.4971 37.6159 46.8946 44.58 48 51M192 84C181.208 83.4389 178.94 75.5988 180.439 66C182.678 51.6675 187.788 35.4317 195.352 23.0046C198.175 18.3656 205.931 12.9256 210.339 19.2785C213.466 23.7862 204.39 33.8678 202.258 38C194.628 52.7908 189.897 67.3584 192 84M150 26.4159C153.436 26.0952 160.315 27.971 157.914 32.7917C156.261 36.1098 147.587 40.74 144.005 41.2114C139.272 41.8341 137.337 36.7014 139.184 33.0185C141.141 29.1135 145.779 26.8099 150 26.4159M171 53C182.982 54.3674 174.874 66.5815 174.333 74C174.048 77.8931 175.958 81.3467 177 85C170.104 86.4744 164.79 83.0739 164 76C158.603 81.1162 143.481 89.5215 142.113 75.9961C141.157 66.5543 147.366 55.8845 153.616 49.2901C160.228 42.3135 170.616 41.1726 171 53M80 47C80.0411 50.5355 79.9106 52.9981 83 55L83 47L80 47M167 58L163 58C163.501 55.3142 163.883 52.73 164 50C157.61 50.9867 154.079 56.0884 152.105 62C151.27 64.5014 150.385 68.158 152.604 70.2423C159.614 76.8249 166.268 62.9546 167 58M73 51C69.6461 55.1579 67.7057 59.7314 66.6736 64.9961C66.3291 66.7537 65.7421 69.543 67.6073 70.7122C71.3095 73.033 77.5171 66.4094 77.6698 63C77.8118 59.8259 74.3689 54.0155 73 51M35 67C25.8177 74.4531 16.5782 82.3764 16 95C25.7888 91.6603 39.6059 78.8052 35 67M86 81C90.225 88.9698 99.3488 91.9988 108 90.3812C111.555 89.7164 115.385 87.2901 119 87.5123C122.484 87.7265 125.635 90.3501 129 91.2346C133.512 92.4207 137.645 91.2237 142 90C140.574 94.5074 137.353 103.186 133.363 105.972C130.567 107.924 126.189 106.776 123 107.854C118.521 109.369 115.254 113.052 111 115C107.284 109.999 103.156 108.145 97 108C95.9074 100.999 89.224 88.6473 81 88.4421C77.1114 88.3451 73.4575 91.5674 70 93L69 91C73.8209 87.3514 80.5092 83.5115 86 81M57 87L56 88L57 87M170 98.341C173.366 98.0086 180.374 99.8641 177.914 104.676C176.143 108.138 167.752 112.529 164.005 113.073C159.376 113.744 157.174 108.75 159.032 105.015C161.034 100.993 165.698 98.7658 170 98.341M64 109C63.0143 110.479 63 110.203 63 112C64.2892 110.557 64.4009 110.766 64 109M160 155C151.363 158.644 144.608 155.942 145.039 146C145.427 137.061 149.464 126.505 154.352 119.059C157.063 114.928 163.807 114.075 165.184 120.044C166.229 124.577 161.172 130.82 159.699 135C157.23 142.008 158.155 148.026 160 155M191 124C203.667 126.612 194.624 137.881 194.217 146C194.023 149.867 195.964 153.368 197 157C190.314 158.63 184.764 154.802 184 148C181.441 150.07 179.06 152.578 175.996 153.91C167.708 157.515 161.443 152.62 162.094 144C162.766 135.097 169.025 123.976 176.039 118.558C182.533 113.542 190.342 115.299 191 124M47.3333 118.667C47.2778 118.722 47.2222 119.778 47.6667 119.333C47.7222 119.278 47.7778 118.222 47.3333 118.667M86 135C91.6421 132.361 94.6594 128.222 95 122C89.5182 124.618 87.3595 129.279 86 135M125.01 122.801C119.698 124.439 116.58 131.862 116.409 136.995C116.258 141.528 119.81 143.718 123.996 142.268C129.088 140.504 131.846 135.191 131.812 130C131.788 126.188 129.614 121.381 125.01 122.801M187 130L183 130C183.501 127.314 183.883 124.73 184 122C177.622 122.985 174.061 128.087 172.106 134C171.275 136.512 170.51 140.15 172.743 142.218C179.312 148.3 186.288 134.728 187 130M78 163L78 166L80 166L80 163L78 163z"/>
</svg>
